#!OML:ASF C:\ViconDB\ViconDB\414\Spring2016\041811\Spring2016.ASF
:FULLY-SPECIFIED
:DEGREES
185
root 7.49166 14.1979 -14.0735 -172.309 -3.26714 180.81
lowerback 32.764 1.33369 -0.335538
upperback 4.61334 0.239434 0.392128
thorax -11.7693 -0.452871 0.627042
lowerneck -13.5101 -6.23822 -15.8616
upperneck -3.45396 -7.43423 22.2402
head 2.82058 -3.47334 9.12708
rclavicle -3.70236e-015 -1.09332e-015
rhumerus -34.3485 -2.24312 -88.894
rradius 52.8543
rwrist 7.67342
rhand -41.5438 -19.776
rfingers 7.12502
rthumb -14.4556 -49.2525
lclavicle -3.70236e-015 -1.09332e-015
lhumerus -24.9989 -0.507356 81.3816
lradius 43.3048
lwrist -5.47196
lhand -32.5633 18.6088
lfingers 7.12502
lthumb -5.79261 48.5096
rfemur -52.9696 -19.8947 22.4454
rtibia 90.9176
rfoot 5.25258 -20.5048
rtoes -3.85912
lfemur -61.0344 15.3961 -10.3101
ltibia 89.0513
lfoot -32.33 -10.0916
ltoes -17.2777
186
root 7.50386 14.2507 -14.2729 -172.119 -3.45972 180.616
lowerback 32.4936 1.4095 -0.620996
upperback 4.55969 0.273516 0.402097
thorax -11.7234 -0.412958 0.775343
lowerneck -13.6299 -6.34383 -15.9056
upperneck -3.51022 -7.55339 22.2382
head 2.84843 -3.52917 9.11929
rclavicle -8.89561e-015 6.80837e-015
rhumerus -32.4108 -0.411975 -88.226
rradius 55.2369
rwrist 7.18105
rhand -42.1547 -19.8426
rfingers 7.12502
rthumb -15.0442 -49.276
lclavicle -8.89561e-015 6.80837e-015
lhumerus -23.071 -1.43418 80.7335
lradius 45.5747
lwrist -5.74362
lhand -32.5403 18.2467
lfingers 7.12502
lthumb -5.77036 48.1481
rfemur -51.6882 -19.8675 22.1434
rtibia 90.1857
rfoot 6.20071 -20.3909
rtoes -3.69457
lfemur -59.9383 14.8813 -10.2785
ltibia 88.5439
lfoot -33.0801 -9.60275
ltoes -17.5665
187
root 7.51259 14.328 -14.4838 -171.798 -3.62305 180.308
lowerback 31.8961 1.47839 -1.02652
upperback 4.50467 0.279956 0.394931
thorax -11.544 -0.374107 0.979124
lowerneck -13.7678 -6.4652 -15.9687
upperneck -3.49656 -7.68833 22.192
head 2.90008 -3.58709 9.097
rclavicle -3.19298e-015 -4.89507e-015
rhumerus -30.4894 1.50933 -87.3138
rradius 58.156
rwrist 5.95215
rhand -42.9321 -19.8238
rfingers 7.12502
rthumb -15.793 -49.1995
lclavicle -3.19298e-015 -4.89507e-015
lhumerus -21.2059 -2.71707 79.9265
lradius 48.557
lwrist -4.69428
lhand -33.0008 18.1806
lfingers 7.12502
lthumb -6.21495 48.0695
rfemur -50.3962 -19.8498 21.7837
rtibia 89.2172
rfoot 6.74608 -20.3526
rtoes -3.73316
lfemur -58.7639 14.3075 -10.4714
ltibia 87.7773
lfoot -33.8464 -8.82911
ltoes -17.539
188
root 7.51602 14.4259 -14.7018 -171.432 -3.83666 180.648
lowerback 31.0844 1.34814 -0.723258
upperback 4.43988 0.299305 0.479325
thorax -11.2761 -0.35008 0.892773
lowerneck -13.9167 -6.54984 -15.9347
upperneck -3.46407 -7.78659 22.0718
head 2.94274 -3.62839 9.0354
rclavicle -8.99501e-015 -4.94477e-015
rhumerus -28.5109 3.01354 -86.1003
rradius 61.4343
rwrist 5.24738
rhand -42.6171 -20.1057
rfingers 7.12502
rthumb -15.4896 -49.5052
lclavicle -8.99501e-015 -4.94477e-015
lhumerus -19.3802 -3.89648 78.7828
lradius 52.0536
lwrist -2.92419
lhand -33.6861 18.0592
lfingers 7.12502
lthumb -6.87653 47.9275
rfemur -48.8931 -19.528 22.1404
rtibia 87.8252
rfoot 7.24911 -20.169
rtoes -3.39012
lfemur -57.5562 13.8332 -9.91172
ltibia 86.802
lfoot -34.3824 -8.38189
ltoes -17.8163
189
root 7.53388 14.5343 -14.9245 -171.465 -4.11895 180.151
lowerback 30.5818 1.36257 -1.30915
upperback 4.81979 0.151403 0.375481
thorax -11.4159 -0.377184 1.23339
lowerneck -14.0709 -6.62925 -16.066
upperneck -3.38208 -7.87931 22.21
head 3.02419 -3.66213 9.0928
rclavicle -1.29459e-014 8.52289e-015
rhumerus -26.4514 4.5077 -84.6281
rradius 64.989
rwrist 3.75197
rhand -42.8497 -20.6437
rfingers 7.12502
rthumb -15.7137 -50.0257
lclavicle -1.29459e-014 8.52289e-015
lhumerus -17.7108 -4.86388 77.3454
lradius 56.214
lwrist -1.53248
lhand -33.892 18.2256
lfingers 7.12502
lthumb -7.07536 48.0873
rfemur -46.8119 -19.5606 21.3637
rtibia 86.3408
rfoot 7.64218 -20.1258
rtoes -3.13399
lfemur -55.6149 12.9208 -10.1379
ltibia 85.4941
lfoot -35.0356 -7.626
ltoes -18.4196
190
root 7.54123 14.6641 -15.1582 -171.178 -4.04975 179.444
lowerback 29.8668 1.46344 -2.01846
upperback 4.68051 0.0997277 0.122339
thorax -11.2227 -0.353724 1.36694
lowerneck -14.1913 -6.6919 -15.9385
upperneck -3.27866 -7.98146 22.1484
head 3.08402 -3.70488 9.03402
rclavicle 1.41634e-014 7.20594e-015
rhumerus -24.3428 5.38643 -82.904
rradius 68.835
rwrist 3.34231
rhand -42.2185 -21.2829
rfingers 7.12502
rthumb -15.1057 -50.7117
lclavicle 1.41634e-014 7.20594e-015
lhumerus -15.9195 -5.59521 75.5951
lradius 60.5338
lwrist -0.385099
lhand -33.407 18.309
lfingers 7.12502
lthumb -6.60718 48.1859
rfemur -45.0144 -19.3613 20.4207
rtibia 84.6483
rfoot 7.91146 -19.9326
rtoes -2.84306
lfemur -53.7015 12.2595 -10.7139
ltibia 83.9094
lfoot -35.5604 -7.10988
ltoes -18.8749
